<?xml version="1.0" standalone="no"?>
<!DOCTYPE svg PUBLIC "-//W3C//DTD SVG 20010904//EN"
 "http://www.w3.org/TR/2001/REC-SVG-20010904/DTD/svg10.dtd">
<svg version="1.0" xmlns="http://www.w3.org/2000/svg"
 width="1434.000000pt" height="1337.000000pt" viewBox="0 0 1434.000000 1337.000000"
 preserveAspectRatio="xMidYMid meet">

<g transform="translate(0.000000,1337.000000) scale(0.100000,-0.100000)"
fill="#000000" stroke="none">
<path d="M3405 10854 c-1848 -1382 -3370 -2525 -3382 -2539 l-23 -26 0 -4145
0 -4144 7170 0 7170 0 0 290 0 290 -560 0 -559 0 -263 74 c-469 133 -943 262
-1448 396 -272 72 -756 203 -1075 291 -1605 443 -2406 644 -3158 793 -429 86
-873 152 -1176 175 -174 14 -541 14 -656 0 -241 -29 -387 -95 -453 -207 -25
-44 -27 -54 -26 -157 1 -102 5 -121 48 -260 59 -188 75 -265 83 -385 14 -237
-59 -468 -214 -671 l-37 -49 -114 0 -115 0 40 42 c85 93 148 207 190 345 23
78 26 104 27 238 0 124 -4 164 -22 230 -88 319 -327 562 -638 646 -116 32
-324 32 -447 0 -317 -82 -525 -266 -621 -549 -57 -166 -62 -409 -12 -577 35
-115 97 -240 158 -315 l48 -60 -1415 0 -1415 0 0 478 c0 262 5 1924 11 3692
l12 3215 21 21 c34 34 6419 4807 6431 4807 6 0 1209 -896 2674 -1992 1465
-1096 2667 -1989 2671 -1984 4 4 83 109 175 232 139 185 165 225 154 236 -8 7
-1239 929 -2736 2049 l-2722 2036 -218 -1 -218 0 -3360 -2515z"/>
<path d="M8845 8149 c-436 -41 -830 -176 -1165 -400 -516 -345 -861 -874
-1015 -1557 -107 -477 -109 -1088 -5 -1612 190 -952 739 -1588 1550 -1794 182
-46 331 -66 540 -73 346 -11 646 32 875 128 96 40 223 119 284 177 47 45 52
56 151 320 57 150 105 271 107 269 3 -3 123 -769 123 -784 0 -2 225 -3 500 -3
l500 0 0 1395 0 1395 -1090 0 -1090 0 0 -530 0 -530 481 0 481 0 -7 -27 c-25
-103 -133 -326 -207 -428 -75 -104 -208 -219 -318 -275 -226 -115 -572 -133
-827 -42 -171 60 -335 184 -453 341 -147 194 -257 509 -305 871 -23 167 -32
618 -16 788 35 366 134 683 287 914 107 161 291 319 450 387 246 105 567 107
816 7 273 -111 471 -389 532 -751 l12 -70 642 -3 c631 -2 642 -2 642 17 0 43
-32 260 -50 340 -43 190 -85 310 -167 476 -290 586 -844 943 -1617 1040 -149
19 -506 27 -641 14z"/>
<path d="M2170 5441 l0 -2621 640 0 640 0 0 920 0 920 448 0 c581 0 830 17
1067 72 320 74 616 249 808 477 67 79 158 214 196 289 142 280 210 670 182
1027 -36 447 -182 786 -456 1061 -216 216 -481 355 -792 414 -263 49 -351 53
-1580 57 l-1153 4 0 -2620z m2234 1529 c213 -54 350 -204 392 -431 25 -128 15
-338 -20 -445 -61 -189 -180 -299 -380 -351 -50 -13 -140 -17 -503 -20 l-443
-5 0 636 0 636 438 0 c404 0 445 -2 516 -20z"/>
</g>
</svg>
